<svg width="129" height="73" viewBox="0 0 129 73" fill="none" xmlns="http://www.w3.org/2000/svg">
<g clip-path="url(#clip0_39_1145)">
<path d="M120.262 68.75C120.227 70.0648 120.009 71.3682 119.613 72.6215C119.604 72.6506 119.594 72.6793 119.585 72.7084H117.163C117.165 72.6823 117.168 72.6532 117.171 72.6215C117.332 70.75 116.409 59.4951 115.296 57.5471C115.394 57.7051 120.45 62.8033 120.262 68.75Z" fill="#F1F1F1"/>
<path d="M120.08 72.6216C120.06 72.6507 120.039 72.6798 120.017 72.7084H118.2C118.214 72.6837 118.23 72.6546 118.249 72.6216C118.549 72.0755 119.437 70.4427 120.262 68.7501C121.148 66.931 121.961 65.0431 121.893 64.3597C121.914 64.5138 122.527 69.212 120.08 72.6216Z" fill="#F1F1F1"/>
<path d="M6.70313 69.7686C6.72909 70.7451 6.89138 71.7131 7.18522 72.644C7.19172 72.6656 7.19896 72.6869 7.206 72.7085H9.00488C9.00299 72.6891 9.00104 72.6675 8.99915 72.644C8.87922 71.254 9.56442 62.8951 10.3913 61.4484C10.3188 61.5657 6.56365 65.3521 6.70313 69.7686Z" fill="#F1F1F1"/>
<path d="M6.83814 72.6439C6.85319 72.6655 6.86883 72.6872 6.88485 72.7084H8.23443C8.2242 72.69 8.21234 72.6684 8.19859 72.6439C7.97566 72.2384 7.3158 71.0257 6.70329 69.7686C6.04531 68.4176 5.44114 67.0154 5.49202 66.5079C5.47625 66.6223 5.02075 70.1116 6.83814 72.6439Z" fill="#F1F1F1"/>
<path d="M94.5875 51.2057C81.001 45.4016 68.7091 45.6222 57.1312 49.1648C39.2921 46.0242 27.0766 46.5101 19.2411 51.2057V36.6276H94.5875V51.2057Z" fill="#CBCBCB"/>
<path d="M94.5875 47.1967C82.0705 41.4795 69.5686 41.1104 56.8782 47.1967C43.8801 43.4242 31.3148 43.4636 19.1688 47.1967V2.87918C32.0824 -1.00603 44.644 -0.912667 56.8782 2.87918C69.8015 -0.89957 82.3826 -1.01941 94.5875 2.87918V47.1967Z" fill="#E5E5E5"/>
<path d="M22.5609 8.37896L22.1399 7.29265C22.3049 7.22766 26.2482 5.69098 32.0352 4.90712C37.3856 4.18227 45.3569 4.00922 52.949 7.30005L52.4919 8.37149C45.1537 5.19078 37.4181 5.35827 32.2208 6.0587C26.5638 6.82128 22.6003 8.36345 22.5609 8.37896Z" fill="white"/>
<path d="M22.5609 12.4608L22.1399 11.3745C22.3049 11.3095 26.2482 9.77284 32.0352 8.98898C37.3856 8.2642 45.3569 8.09115 52.949 11.3819L52.4919 12.4534C45.1537 9.27264 37.4181 9.43999 32.2208 10.1406C26.5638 10.9031 22.6003 12.4453 22.5609 12.4608Z" fill="white"/>
<path d="M22.5609 16.5427L22.1399 15.4563C22.3049 15.3914 26.2482 13.8547 32.0352 13.0708C37.3856 12.346 45.3569 12.1729 52.949 15.4637L52.4919 16.5352C45.1537 13.3545 37.4181 13.5218 32.2208 14.2224C26.5638 14.985 22.6003 16.5271 22.5609 16.5427Z" fill="white"/>
<path d="M22.5609 20.6245L22.1399 19.5382C22.3049 19.4732 26.2482 17.9365 32.0352 17.1527C37.3856 16.428 45.3569 16.2547 52.949 19.5456L52.4919 20.617C45.1537 17.4363 37.4181 17.6038 32.2208 18.3043C26.5638 19.0668 22.6003 20.609 22.5609 20.6245Z" fill="white"/>
<path d="M22.5609 24.7065L22.1399 23.6202C22.3049 23.5552 26.2482 22.0185 32.0352 21.2346C37.3856 20.5098 45.3569 20.3367 52.949 23.6276L52.4919 24.699C45.1537 21.5182 37.4181 21.6857 32.2208 22.3862C26.5638 23.1488 22.6003 24.691 22.5609 24.7065Z" fill="white"/>
<path d="M22.5609 28.7883L22.1399 27.702C22.3049 27.637 26.2482 26.1003 32.0352 25.3165C37.3856 24.5918 45.3569 24.4186 52.949 27.7094L52.4919 28.7808C45.1537 25.6001 37.4181 25.7676 32.2208 26.4681C26.5638 27.2306 22.6003 28.7728 22.5609 28.7883Z" fill="white"/>
<path d="M60.3064 37.3894L59.8854 36.3031C60.0504 36.2381 63.9936 34.7014 69.7807 33.9176C75.131 33.1928 83.1024 33.0197 90.6944 36.3105L90.2374 37.3819C82.8992 34.2011 75.1636 34.3687 69.9663 35.0691C64.3093 35.8317 60.3458 37.3739 60.3064 37.3894Z" fill="#6C63FF"/>
<path d="M59.9513 29.5555V7.26125L60.3573 7.13341C70.646 3.89369 80.8847 3.89433 90.7891 7.13533L91.189 7.26617V29.5259L90.4062 29.228C80.0993 25.3067 70.122 25.3044 60.7514 29.2211L59.9513 29.5555ZM75.2177 25.1165C80.0603 25.1165 84.9984 26.0264 90.032 27.8462V8.11566C80.6153 5.12208 70.8878 5.12372 61.1082 8.12042V27.8192C65.6017 26.0346 70.3881 25.1178 75.2177 25.1165Z" fill="white"/>
<path d="M90.056 36.8117L90.2076 33.1014L95.4061 22.6825C95.5526 22.3863 95.7916 22.1468 96.0863 22.0008C96.2668 21.91 96.4634 21.8565 96.6646 21.8432C96.8659 21.83 97.0677 21.8573 97.2584 21.9236C97.4792 22.0004 97.6794 22.1275 97.8435 22.2951C98.0075 22.4627 98.1309 22.6662 98.2041 22.8898C98.2355 22.9864 98.2575 23.0857 98.27 23.1865C98.3069 23.4857 98.2544 23.7892 98.1192 24.0581L92.9137 34.4911L90.056 36.8117Z" fill="#6C63FF"/>
<path d="M96.7337 21.9132L91.0908 33.2229L90.6605 33.0048L96.1183 22.0663C96.3096 21.9697 96.5199 21.9174 96.7337 21.9132Z" fill="#3F3D56"/>
<path d="M98.1982 23.1958L92.7703 34.0745L92.3401 33.8563L97.9714 22.5701C98.0407 22.6766 98.0958 22.7918 98.1355 22.9127C98.1654 23.0048 98.1864 23.0996 98.1982 23.1958Z" fill="#3F3D56"/>
<path d="M97.6578 22.225L91.9525 33.6598L91.5222 33.4416L97.2347 21.9926C97.2956 22.0135 97.355 22.0387 97.4124 22.068C97.4991 22.112 97.5813 22.1646 97.6578 22.225Z" fill="#3F3D56"/>
<path d="M90.7086 36.1884L90.1345 36.6545L90.1826 35.4257C90.3798 35.4946 90.5932 35.7937 90.7086 36.1884Z" fill="#3F3D56"/>
<path d="M34.0829 49.5808L33.3956 47.4793L34.1278 40.5691C34.148 40.3729 34.2314 40.1888 34.3654 40.045C34.4472 39.9563 34.5457 39.8848 34.6552 39.8349C34.7647 39.785 34.883 39.7576 35.0031 39.7543C35.1422 39.7504 35.2804 39.779 35.4067 39.8378C35.5331 39.8966 35.6443 39.984 35.7316 40.0932C35.7692 40.1405 35.8022 40.1912 35.8301 40.2448C35.9129 40.4039 35.9468 40.5843 35.9273 40.7628L35.1941 47.6824L34.0829 49.5808Z" fill="#6C63FF"/>
<path d="M34.7083 39.8593L33.9135 47.3603L33.6282 47.3295L34.3969 40.0747C34.4835 39.9804 34.5899 39.9068 34.7083 39.8593Z" fill="#3F3D56"/>
<path d="M35.792 40.2652L35.0275 47.4803L34.7422 47.4496L35.5353 39.9641C35.5962 40.0089 35.6509 40.0615 35.6981 40.1205C35.734 40.1656 35.7654 40.214 35.792 40.2652Z" fill="#3F3D56"/>
<path d="M35.2886 39.838L34.4851 47.4219L34.1997 47.3912L35.0043 39.7977C35.0426 39.7966 35.081 39.7981 35.1191 39.8022C35.1766 39.8085 35.2334 39.8205 35.2886 39.838Z" fill="#3F3D56"/>
<path d="M34.3173 49.0951L34.094 49.4764L33.8652 48.7808C33.9895 48.7776 34.1708 48.8993 34.3173 49.0951Z" fill="#3F3D56"/>
<path d="M108.528 47.1164C108.449 47.2545 108.345 47.3756 108.22 47.4729C108.095 47.5702 107.953 47.6418 107.801 47.6836C107.493 47.7681 107.165 47.7259 106.889 47.5665C106.612 47.4072 106.41 47.1436 106.326 46.8337C106.242 46.5239 106.284 46.1932 106.442 45.9145C106.445 45.9098 106.448 45.9051 106.45 45.9004C106.484 45.8436 106.522 45.7895 106.564 45.7386L105.553 38.4793L105.523 38.2618L105.318 36.7805L105.287 36.567L105.399 36.5723L107.357 36.6625L107.882 36.6864L107.948 38.0377L108.32 45.6351C108.514 45.8227 108.641 46.0708 108.678 46.3395C108.716 46.6082 108.663 46.8818 108.528 47.1164Z" fill="#FFB8B8"/>
<path d="M105.529 38.3276L108.015 38.0978C108.143 38.0854 108.262 38.0223 108.345 37.922C108.428 37.8217 108.468 37.6924 108.457 37.5624L107.997 32.3517C107.952 31.8499 107.712 31.3864 107.328 31.0632C106.945 30.74 106.45 30.5836 105.952 30.6284C105.454 30.6732 104.994 30.9155 104.674 31.3021C104.353 31.6886 104.198 32.1878 104.242 32.6896C104.245 32.7255 104.25 32.7613 104.255 32.7969L105 37.9079C105.017 38.025 105.076 38.132 105.164 38.2094C105.253 38.2868 105.367 38.3295 105.484 38.3297C105.499 38.33 105.514 38.3293 105.529 38.3276Z" fill="#CBCBCB"/>
<path d="M107.413 34.118C107.664 33.4001 107.676 32.6191 107.446 31.8939C107.216 31.1688 106.757 30.5393 106.139 30.1014C105.202 29.4549 103.919 29.2228 102.538 30.8805C100.867 32.9042 99.6743 35.2852 99.0519 37.8427L104.709 38.771C104.709 38.771 106.633 36.4005 107.413 34.118Z" fill="#CBCBCB"/>
<path d="M98.2635 71.4629H96.6507L95.8834 65.1919H98.2638L98.2635 71.4629Z" fill="#FFB8B8"/>
<path d="M93.5405 72.9724H98.6095V70.9982H95.499C94.9796 70.9982 94.4814 71.2062 94.1141 71.5764C93.7469 71.9466 93.5405 72.4488 93.5405 72.9724Z" fill="#2F2E41"/>
<path d="M111.524 70.0448L109.992 70.5551L107.311 64.8437L109.571 64.0906L111.524 70.0448Z" fill="#FFB8B8"/>
<path d="M107.509 72.9724L112.322 71.3689L111.707 69.4944L108.754 70.4784C108.261 70.6427 107.852 70.9978 107.619 71.4655C107.385 71.9332 107.346 72.4753 107.509 72.9724Z" fill="#2F2E41"/>
<path d="M103.862 28.4571C105.646 28.4571 107.093 26.9989 107.093 25.2C107.093 23.4011 105.646 21.9429 103.862 21.9429C102.077 21.9429 100.631 23.4011 100.631 25.2C100.631 26.9989 102.077 28.4571 103.862 28.4571Z" fill="#FFB8B8"/>
<path d="M101.033 69.7173L102.53 59.752C102.546 59.6456 102.598 59.5482 102.678 59.4763C102.757 59.4044 102.859 59.3625 102.966 59.3578C103.072 59.3531 103.177 59.3859 103.262 59.4505C103.348 59.5152 103.408 59.6077 103.433 59.7122L105.714 69.2089C105.75 69.3544 105.839 69.4811 105.962 69.5642C106.086 69.6473 106.236 69.6806 106.383 69.6578L112.675 68.6386C112.759 68.6251 112.838 68.5937 112.909 68.5467C112.979 68.4996 113.039 68.4378 113.083 68.3656C113.128 68.2934 113.157 68.2123 113.168 68.1279C113.179 68.0434 113.172 67.9576 113.148 67.8761L104.944 40.6106C104.92 40.5331 104.918 40.4509 104.936 40.3719L105.209 39.1784C105.239 39.049 105.225 38.9133 105.17 38.7927C105.114 38.6722 105.02 38.5739 104.903 38.5135C103.786 37.9389 100.956 36.7443 98.8207 38.0528C98.7514 38.0954 98.6914 38.1518 98.6444 38.2185C98.5974 38.2853 98.5643 38.3609 98.5472 38.4409L92.1383 68.8055C92.1209 68.8881 92.121 68.9735 92.1388 69.056C92.1565 69.1385 92.1913 69.2163 92.2411 69.2842C92.2908 69.3521 92.3543 69.4086 92.4273 69.45C92.5003 69.4914 92.5811 69.5166 92.6646 69.5242L100.394 70.222C100.412 70.2236 100.429 70.2244 100.447 70.2244C100.589 70.2241 100.725 70.1729 100.833 70.0798C100.94 69.9868 101.011 69.8582 101.032 69.7171L101.033 69.7173Z" fill="#2F2E41"/>
<path d="M106.004 22.8988C105.761 22.7511 105.545 22.5617 105.366 22.3392C105.277 22.2267 105.219 22.0932 105.197 21.9516C105.174 21.8099 105.189 21.6648 105.238 21.5302C105.401 21.1671 105.886 21.0528 106.262 21.176C106.638 21.2992 106.929 21.5967 107.203 21.8833C107.445 22.1352 107.694 22.3994 107.808 22.7308C107.923 23.0622 107.864 23.4824 107.579 23.6836C107.299 23.8809 106.896 23.8002 106.626 23.5883C106.372 23.3566 106.169 23.0732 106.031 22.7568L106.004 22.8988Z" fill="#2F2E41"/>
<path d="M107.099 21.9707C107.117 21.053 108.154 20.3949 109.051 20.5576C109.947 20.7203 110.636 21.4905 110.981 22.3401C111.709 24.135 111.162 26.1831 110.46 27.9894C109.758 29.7958 108.89 31.6282 108.992 33.5649C109.061 34.6117 109.41 35.6201 110.001 36.4838C110.591 37.3475 111.403 38.0342 112.349 38.4716C111.337 38.9338 110.128 38.4564 109.278 37.7359C107.391 36.1359 106.662 33.2872 107.547 30.9667C107.983 29.8221 108.752 28.8429 109.353 27.7766C109.953 26.7102 110.394 25.4534 110.084 24.2677C109.774 23.082 108.454 22.1222 107.326 22.5809L107.099 21.9707Z" fill="#2F2E41"/>
<path d="M103.668 26.6454C103.95 26.1656 104.234 25.5356 103.719 25.1162C103.607 25.0291 103.479 24.9655 103.342 24.9291C103.206 24.8927 103.063 24.8841 102.923 24.904C102.343 24.9746 101.711 25.0036 101.149 24.791C100.938 24.7179 100.744 24.6029 100.578 24.4527C100.412 24.3026 100.278 24.1204 100.184 23.917C99.8943 23.2242 100.257 22.3824 100.863 21.9445C101.234 21.6863 101.673 21.5443 102.123 21.5363C102.574 21.5282 103.017 21.6545 103.397 21.8992C104.182 21.5495 105.135 21.7051 105.849 22.1865C106.562 22.6679 107.05 23.4388 107.316 24.2619C107.56 24.9704 107.602 25.7338 107.437 26.4653C107.304 26.9741 107.052 27.4432 106.701 27.8328C106.35 28.2225 105.912 28.5212 105.422 28.7036C105.231 28.7795 105.024 28.8034 104.822 28.7732C104.619 28.7429 104.427 28.6595 104.267 28.5313C104.006 28.2951 103.805 27.9987 103.682 27.6674C103.575 27.3044 103.518 26.9017 103.668 26.6454Z" fill="#2F2E41"/>
<path d="M94.0825 29.5518C94.0987 29.6233 94.1092 29.6961 94.114 29.7693L99.7652 33.0557L101.139 32.2586L102.603 34.191L100.308 35.8405C100.122 35.9738 99.8986 36.0428 99.6709 36.0372C99.4432 36.0316 99.2234 35.9517 99.0446 35.8094L93.2166 31.1751C92.9536 31.2733 92.6671 31.2885 92.3952 31.2186C92.1234 31.1486 91.8791 30.9969 91.6949 30.7836C91.5107 30.5703 91.3953 30.3056 91.3641 30.0245C91.3328 29.7435 91.3872 29.4595 91.5199 29.2104C91.6527 28.9613 91.8576 28.7588 92.1073 28.6299C92.357 28.5011 92.6397 28.4519 92.9178 28.4889C93.196 28.526 93.4563 28.6475 93.6642 28.8374C93.8721 29.0273 94.0178 29.2764 94.0817 29.5518L94.0825 29.5518Z" fill="#FFB8B8"/>
<path d="M99.9543 33.2113L101.781 35.5975C101.833 35.6654 101.899 35.7211 101.974 35.761C102.049 35.8008 102.132 35.8239 102.217 35.8286C102.302 35.8333 102.387 35.8195 102.466 35.7882C102.545 35.7568 102.616 35.7087 102.675 35.647L104.743 33.4826C104.917 33.3529 105.064 33.1899 105.175 33.0029C105.286 32.8159 105.36 32.6086 105.392 32.3928C105.423 32.1771 105.413 31.9572 105.36 31.7457C105.307 31.5342 105.213 31.3353 105.084 31.1603C104.955 30.9854 104.793 30.8378 104.607 30.7261C104.421 30.6145 104.215 30.5409 104.001 30.5095C103.787 30.4782 103.569 30.4897 103.359 30.5435C103.15 30.5973 102.953 30.6923 102.779 30.823C102.762 30.8364 102.744 30.8502 102.727 30.8643L100.133 32.326C100.059 32.3678 99.9948 32.4254 99.9446 32.4946C99.8944 32.5638 99.8596 32.6432 99.8426 32.7272C99.8255 32.8112 99.8266 32.8979 99.8459 32.9815C99.8651 33.065 99.9019 33.1434 99.9539 33.2113H99.9543Z" fill="#CBCBCB"/>
<path d="M30.1606 71.2592L31.9138 71.259L32.7479 64.4421L30.1603 64.4423L30.1606 71.2592Z" fill="#A0616A"/>
<path d="M29.7133 70.6822L33.1661 70.682H33.1662C33.7498 70.682 34.3094 70.9157 34.7221 71.3317C35.1347 71.7477 35.3666 72.3118 35.3666 72.9001V72.9721L29.7134 72.9724L29.7133 70.6822Z" fill="#2F2E41"/>
<path d="M16.5092 70.4941L18.2427 70.7583L20.0783 64.1436L17.8057 63.7538L16.5092 70.4941Z" fill="#A0616A"/>
<path d="M16.1524 69.8562L19.5664 70.3764C20.1434 70.4643 20.6623 70.7798 21.0086 71.2532C21.3549 71.7267 21.5005 72.3194 21.4133 72.9011L21.4026 72.9724L15.8129 72.1207L16.1524 69.8562Z" fill="#2F2E41"/>
<path d="M21.9148 37.4761L23.8615 37.9902L23.732 41.1717L23.7159 46.9642C23.9077 47.0979 24.0547 47.2872 24.1375 47.5069C24.2202 47.7267 24.2349 47.9666 24.1794 48.1949C24.124 48.4233 24.0011 48.6292 23.827 48.7856C23.6529 48.942 23.4358 49.0414 23.2044 49.0707C22.9731 49.1 22.7383 49.0579 22.5312 48.9498C22.3242 48.8416 22.1545 48.6727 22.0448 48.4653C21.935 48.2579 21.8903 48.0218 21.9166 47.7882C21.9428 47.5547 22.0388 47.3346 22.1918 47.1573L21.5936 41.3435L21.9148 37.4761Z" fill="#A0616A"/>
<path d="M21.576 33.8319C21.5867 33.5244 21.6851 33.2266 21.8593 32.974C22.0335 32.7213 22.2762 32.5246 22.5583 32.4073C22.8224 32.2882 23.1153 32.2494 23.401 32.2957C23.6867 32.3421 23.9527 32.4715 24.1665 32.6681C24.3201 32.8064 24.442 32.9769 24.5235 33.1677C24.6051 33.3584 24.6444 33.5647 24.6387 33.7723C24.6438 35.6361 24.2264 38.3527 24.2222 38.3799L24.2155 38.4231L21.3701 39.389L21.576 33.8319Z" fill="#CBCBCB"/>
<path d="M26.6636 39.1225L31.0157 37.9869L33.0275 44.8168L33.099 70.2607L29.7709 70.2397L28.3797 49.6461L19.5132 68.6749L15.938 68.2425L23.7319 47.8441C23.7319 47.8441 23.3029 44.2402 24.6615 42.4382L24.3755 40.5641L26.6636 39.1225Z" fill="#2F2E41"/>
<path d="M23.7292 40.8218C23.6683 40.7472 23.6241 40.6603 23.5996 40.567C23.575 40.4737 23.5707 40.3762 23.5869 40.281L21.6017 34.2776C21.5091 33.997 21.4992 33.6953 21.5734 33.4091C21.6476 33.1229 21.8026 32.8646 22.0196 32.6656L22.8814 31.8759L23.4654 29.5211L26.822 30.3482L26.5455 31.4633L28.0646 31.185L31.2643 38.3687L24.5761 41.0635L24.2467 41.0687C24.1477 41.0689 24.0498 41.0468 23.9603 41.0041C23.8708 40.9614 23.7918 40.8991 23.7292 40.8218Z" fill="#CBCBCB"/>
<path d="M28.3881 35.7529L30.3059 35.1385L31.8835 37.8972L34.9416 42.8013C35.1746 42.811 35.3991 42.8917 35.5856 43.0329C35.7721 43.174 35.9117 43.3689 35.9859 43.5917C36.0601 43.8146 36.0655 44.0549 36.0013 44.2809C35.9371 44.5068 35.8063 44.7078 35.6263 44.8573C35.4463 45.0067 35.2255 45.0976 34.9932 45.1178C34.7609 45.138 34.5279 45.0866 34.3252 44.9705C34.1225 44.8543 33.9595 44.6789 33.8578 44.4673C33.7561 44.2557 33.7206 44.0181 33.7558 43.7857L30.1674 39.1946L28.3881 35.7529Z" fill="#A0616A"/>
<path d="M26.1693 32.8557C26.0153 32.59 25.9405 32.2853 25.9538 31.978C25.967 31.6706 26.0678 31.3737 26.2441 31.1225C26.4042 30.8796 26.6312 30.6891 26.8972 30.5743C27.1632 30.4595 27.4566 30.4255 27.7415 30.4763C27.9447 30.5105 28.1381 30.589 28.3082 30.7062C28.4782 30.8234 28.6209 30.9767 28.7261 31.1552C29.7187 32.7275 30.8065 35.2485 30.8174 35.2737L30.8346 35.3138L28.942 37.6633L26.1693 32.8557Z" fill="#CBCBCB"/>
<path d="M25.9488 29.083C27.4217 29.083 28.6158 27.8793 28.6158 26.3946C28.6158 24.9098 27.4217 23.7062 25.9488 23.7062C24.4759 23.7062 23.2819 24.9098 23.2819 26.3946C23.2819 27.8793 24.4759 29.083 25.9488 29.083Z" fill="#A0616A"/>
<path d="M21.2357 25.2606C22.6545 25.2606 23.8046 24.1012 23.8046 22.671C23.8046 21.2408 22.6545 20.0814 21.2357 20.0814C19.8169 20.0814 18.6667 21.2408 18.6667 22.671C18.6667 24.1012 19.8169 25.2606 21.2357 25.2606Z" fill="#2F2E41"/>
<path d="M19.0199 24.8153C19.3524 25.0575 19.7376 25.216 20.1433 25.2774C20.549 25.3388 20.9634 25.3014 21.3518 25.1683C21.7402 25.0351 22.0914 24.8102 22.3759 24.5122C22.6604 24.2142 22.8699 23.8519 22.987 23.4555C22.9427 23.8107 22.8258 24.1528 22.6437 24.4602C22.4617 24.7675 22.2183 25.0335 21.9291 25.2413C21.64 25.4491 21.3112 25.5942 20.9635 25.6674C20.6159 25.7406 20.257 25.7404 19.9095 25.6668C19.5619 25.5931 19.2333 25.4476 18.9443 25.2395C18.6554 25.0314 18.4124 24.7651 18.2307 24.4575C18.049 24.1499 17.9325 23.8077 17.8886 23.4525C17.8447 23.0972 17.8744 22.7367 17.9757 22.3936C17.9181 22.8545 17.9847 23.3226 18.1684 23.7487C18.3522 24.1748 18.6463 24.5432 19.0199 24.8153Z" fill="#2F2E41"/>
<path d="M29.1581 24.8182C28.7096 24.0088 28.538 23.6708 27.9597 23.1786C27.4484 22.7433 26.8194 22.6155 26.3121 23.0279C25.7119 22.7665 25.0441 22.7073 24.4079 22.8589C23.7717 23.0106 23.2009 23.3651 22.7805 23.8697C22.36 24.3744 22.1123 25.0023 22.0741 25.6602C22.0358 26.3181 22.2091 26.9709 22.5682 27.5216C22.9273 28.0723 23.4531 28.4916 24.0674 28.7171C24.6817 28.9426 25.3518 28.9624 25.9781 28.7734C26.6045 28.5845 27.1536 28.1969 27.544 27.6683C27.9345 27.1396 28.1453 26.4982 28.1453 25.8391C28.1448 25.7234 28.1379 25.6078 28.1246 25.4928C28.5655 25.4304 28.7171 24.8806 29.1581 24.8182Z" fill="#2F2E41"/>
<path d="M55.2444 73.0001H0.144619C0.106264 73.0001 0.0694791 72.9847 0.0423578 72.9574C0.0152365 72.93 0 72.8929 0 72.8543C0 72.8156 0.0152365 72.7785 0.0423578 72.7512C0.0694791 72.7239 0.106264 72.7085 0.144619 72.7085H55.2444C55.2828 72.7085 55.3195 72.7239 55.3467 72.7512C55.3738 72.7785 55.389 72.8156 55.389 72.8543C55.389 72.8929 55.3738 72.93 55.3467 72.9574C55.3195 72.9847 55.2828 73.0001 55.2444 73.0001Z" fill="#CBCBCB"/>
<path d="M128.855 73.0001H73.7556C73.7172 73.0001 73.6804 72.9847 73.6533 72.9574C73.6262 72.93 73.611 72.8929 73.611 72.8543C73.611 72.8156 73.6262 72.7785 73.6533 72.7512C73.6804 72.7239 73.7172 72.7085 73.7556 72.7085H128.855C128.894 72.7085 128.931 72.7239 128.958 72.7512C128.985 72.7785 129 72.8156 129 72.8543C129 72.8929 128.985 72.93 128.958 72.9574C128.931 72.9847 128.894 73.0001 128.855 73.0001Z" fill="#CBCBCB"/>
<path d="M57.0228 2.87915H56.7335V47.0564H57.0228V2.87915Z" fill="#CBCBCB"/>
</g>
<defs>
<clipPath id="clip0_39_1145">
<rect width="129" height="73" fill="white"/>
</clipPath>
</defs>
</svg>
